<svg id="visual" viewBox="0 0 900 600" width="900" height="600" xmlns="http://www.w3.org/2000/svg" xmlns:xlink="http://www.w3.org/1999/xlink" version="1.1"><rect x="0" y="0" width="900" height="600" fill="#001220"></rect><path d="M0 418L7.8 412C15.7 406 31.3 394 47.2 391.7C63 389.3 79 396.7 94.8 398.3C110.7 400 126.3 396 142 391.8C157.7 387.7 173.3 383.3 189.2 384.2C205 385 221 391 236.8 391.3C252.7 391.7 268.3 386.3 284.2 382.3C300 378.3 316 375.7 331.8 379.5C347.7 383.3 363.3 393.7 379 393.5C394.7 393.3 410.3 382.7 426.2 384.5C442 386.3 458 400.7 473.8 399.8C489.7 399 505.3 383 521 381.2C536.7 379.3 552.3 391.7 568.2 394.3C584 397 600 390 615.8 391.7C631.7 393.3 647.3 403.7 663.2 408.2C679 412.7 695 411.3 710.8 406.2C726.7 401 742.3 392 758 384.3C773.7 376.7 789.3 370.3 805.2 369.5C821 368.7 837 373.3 852.8 381.7C868.7 390 884.3 402 892.2 408L900 414L900 601L892.2 601C884.3 601 868.7 601 852.8 601C837 601 821 601 805.2 601C789.3 601 773.7 601 758 601C742.3 601 726.7 601 710.8 601C695 601 679 601 663.2 601C647.3 601 631.7 601 615.8 601C600 601 584 601 568.2 601C552.3 601 536.7 601 521 601C505.3 601 489.7 601 473.8 601C458 601 442 601 426.2 601C410.3 601 394.7 601 379 601C363.3 601 347.7 601 331.8 601C316 601 300 601 284.2 601C268.3 601 252.7 601 236.8 601C221 601 205 601 189.2 601C173.3 601 157.7 601 142 601C126.3 601 110.7 601 94.8 601C79 601 63 601 47.2 601C31.3 601 15.7 601 7.8 601L0 601Z" fill="#c62368"></path><path d="M0 399L7.8 405.8C15.7 412.7 31.3 426.3 47.2 431.8C63 437.3 79 434.7 94.8 430.5C110.7 426.3 126.3 420.7 142 421C157.7 421.3 173.3 427.7 189.2 428.5C205 429.3 221 424.7 236.8 421.8C252.7 419 268.3 418 284.2 420.8C300 423.7 316 430.3 331.8 432C347.7 433.7 363.3 430.3 379 422.8C394.7 415.3 410.3 403.7 426.2 403.2C442 402.7 458 413.3 473.8 413.5C489.7 413.7 505.3 403.3 521 400.5C536.7 397.7 552.3 402.3 568.2 406.8C584 411.3 600 415.7 615.8 416.7C631.7 417.7 647.3 415.3 663.2 415.2C679 415 695 417 710.8 417.7C726.7 418.3 742.3 417.7 758 413.7C773.7 409.7 789.3 402.3 805.2 405.5C821 408.7 837 422.3 852.8 426.2C868.7 430 884.3 424 892.2 421L900 418L900 601L892.2 601C884.3 601 868.7 601 852.8 601C837 601 821 601 805.2 601C789.3 601 773.7 601 758 601C742.3 601 726.7 601 710.8 601C695 601 679 601 663.2 601C647.3 601 631.7 601 615.8 601C600 601 584 601 568.2 601C552.3 601 536.7 601 521 601C505.3 601 489.7 601 473.8 601C458 601 442 601 426.2 601C410.3 601 394.7 601 379 601C363.3 601 347.7 601 331.8 601C316 601 300 601 284.2 601C268.3 601 252.7 601 236.8 601C221 601 205 601 189.2 601C173.3 601 157.7 601 142 601C126.3 601 110.7 601 94.8 601C79 601 63 601 47.2 601C31.3 601 15.7 601 7.8 601L0 601Z" fill="#cf3068"></path><path d="M0 451L7.8 450C15.7 449 31.3 447 47.2 446.7C63 446.3 79 447.7 94.8 449.8C110.7 452 126.3 455 142 449.8C157.7 444.7 173.3 431.3 189.2 431.7C205 432 221 446 236.8 448C252.7 450 268.3 440 284.2 434.2C300 428.3 316 426.7 331.8 426.8C347.7 427 363.3 429 379 434.7C394.7 440.3 410.3 449.7 426.2 450.2C442 450.7 458 442.3 473.8 439.5C489.7 436.7 505.3 439.3 521 443.5C536.7 447.7 552.3 453.3 568.2 452C584 450.7 600 442.3 615.8 438.5C631.7 434.7 647.3 435.3 663.2 439C679 442.7 695 449.3 710.8 452.2C726.7 455 742.3 454 758 448.8C773.7 443.7 789.3 434.3 805.2 435.2C821 436 837 447 852.8 447C868.7 447 884.3 436 892.2 430.5L900 425L900 601L892.2 601C884.3 601 868.7 601 852.8 601C837 601 821 601 805.2 601C789.3 601 773.7 601 758 601C742.3 601 726.7 601 710.8 601C695 601 679 601 663.2 601C647.3 601 631.7 601 615.8 601C600 601 584 601 568.2 601C552.3 601 536.7 601 521 601C505.3 601 489.7 601 473.8 601C458 601 442 601 426.2 601C410.3 601 394.7 601 379 601C363.3 601 347.7 601 331.8 601C316 601 300 601 284.2 601C268.3 601 252.7 601 236.8 601C221 601 205 601 189.2 601C173.3 601 157.7 601 142 601C126.3 601 110.7 601 94.8 601C79 601 63 601 47.2 601C31.3 601 15.7 601 7.8 601L0 601Z" fill="#d73b67"></path><path d="M0 475L7.8 474.7C15.7 474.3 31.3 473.7 47.2 475.3C63 477 79 481 94.8 480.3C110.7 479.7 126.3 474.3 142 468.3C157.7 462.3 173.3 455.7 189.2 452C205 448.3 221 447.7 236.8 453C252.7 458.3 268.3 469.7 284.2 470.2C300 470.7 316 460.3 331.8 459.2C347.7 458 363.3 466 379 471.2C394.7 476.3 410.3 478.7 426.2 475.3C442 472 458 463 473.8 457.3C489.7 451.7 505.3 449.3 521 452.5C536.7 455.7 552.3 464.3 568.2 470.3C584 476.3 600 479.7 615.8 480.5C631.7 481.3 647.3 479.7 663.2 476.3C679 473 695 468 710.8 463C726.7 458 742.3 453 758 452.3C773.7 451.7 789.3 455.3 805.2 460C821 464.7 837 470.3 852.8 474C868.7 477.7 884.3 479.3 892.2 480.2L900 481L900 601L892.2 601C884.3 601 868.7 601 852.8 601C837 601 821 601 805.2 601C789.3 601 773.7 601 758 601C742.3 601 726.7 601 710.8 601C695 601 679 601 663.2 601C647.3 601 631.7 601 615.8 601C600 601 584 601 568.2 601C552.3 601 536.7 601 521 601C505.3 601 489.7 601 473.8 601C458 601 442 601 426.2 601C410.3 601 394.7 601 379 601C363.3 601 347.7 601 331.8 601C316 601 300 601 284.2 601C268.3 601 252.7 601 236.8 601C221 601 205 601 189.2 601C173.3 601 157.7 601 142 601C126.3 601 110.7 601 94.8 601C79 601 63 601 47.2 601C31.3 601 15.7 601 7.8 601L0 601Z" fill="#df4667"></path><path d="M0 476L7.8 481.2C15.7 486.3 31.3 496.7 47.2 499C63 501.3 79 495.7 94.8 493.7C110.7 491.7 126.3 493.3 142 492.2C157.7 491 173.3 487 189.2 484.2C205 481.3 221 479.7 236.8 481C252.7 482.3 268.3 486.7 284.2 491.7C300 496.7 316 502.3 331.8 504C347.7 505.7 363.3 503.3 379 502.5C394.7 501.7 410.3 502.3 426.2 502.5C442 502.7 458 502.3 473.8 497.7C489.7 493 505.3 484 521 481.3C536.7 478.7 552.3 482.3 568.2 485.8C584 489.3 600 492.7 615.8 495.7C631.7 498.7 647.3 501.3 663.2 502.7C679 504 695 504 710.8 501.2C726.7 498.3 742.3 492.7 758 490.2C773.7 487.7 789.3 488.3 805.2 488C821 487.7 837 486.3 852.8 484.7C868.7 483 884.3 481 892.2 480L900 479L900 601L892.2 601C884.3 601 868.7 601 852.8 601C837 601 821 601 805.2 601C789.3 601 773.7 601 758 601C742.3 601 726.7 601 710.8 601C695 601 679 601 663.2 601C647.3 601 631.7 601 615.8 601C600 601 584 601 568.2 601C552.3 601 536.7 601 521 601C505.3 601 489.7 601 473.8 601C458 601 442 601 426.2 601C410.3 601 394.7 601 379 601C363.3 601 347.7 601 331.8 601C316 601 300 601 284.2 601C268.3 601 252.7 601 236.8 601C221 601 205 601 189.2 601C173.3 601 157.7 601 142 601C126.3 601 110.7 601 94.8 601C79 601 63 601 47.2 601C31.3 601 15.7 601 7.8 601L0 601Z" fill="#e75167"></path><path d="M0 511L7.8 512.5C15.7 514 31.3 517 47.2 517.2C63 517.3 79 514.7 94.8 514C110.7 513.3 126.3 514.7 142 513.8C157.7 513 173.3 510 189.2 511.2C205 512.3 221 517.7 236.8 519.3C252.7 521 268.3 519 284.2 520.2C300 521.3 316 525.7 331.8 527.8C347.7 530 363.3 530 379 525.2C394.7 520.3 410.3 510.7 426.2 508.2C442 505.7 458 510.3 473.8 515C489.7 519.7 505.3 524.3 521 522.2C536.7 520 552.3 511 568.2 508.3C584 505.7 600 509.3 615.8 509.5C631.7 509.7 647.3 506.3 663.2 506.5C679 506.7 695 510.3 710.8 512.8C726.7 515.3 742.3 516.7 758 516.8C773.7 517 789.3 516 805.2 517C821 518 837 521 852.8 521.5C868.7 522 884.3 520 892.2 519L900 518L900 601L892.2 601C884.3 601 868.7 601 852.8 601C837 601 821 601 805.2 601C789.3 601 773.7 601 758 601C742.3 601 726.7 601 710.8 601C695 601 679 601 663.2 601C647.3 601 631.7 601 615.8 601C600 601 584 601 568.2 601C552.3 601 536.7 601 521 601C505.3 601 489.7 601 473.8 601C458 601 442 601 426.2 601C410.3 601 394.7 601 379 601C363.3 601 347.7 601 331.8 601C316 601 300 601 284.2 601C268.3 601 252.7 601 236.8 601C221 601 205 601 189.2 601C173.3 601 157.7 601 142 601C126.3 601 110.7 601 94.8 601C79 601 63 601 47.2 601C31.3 601 15.7 601 7.8 601L0 601Z" fill="#ee5c67"></path><path d="M0 539L7.8 539.8C15.7 540.7 31.3 542.3 47.2 543.5C63 544.7 79 545.3 94.8 543.3C110.7 541.3 126.3 536.7 142 533.8C157.7 531 173.3 530 189.2 532.7C205 535.3 221 541.7 236.8 542.7C252.7 543.7 268.3 539.3 284.2 538C300 536.7 316 538.3 331.8 539.3C347.7 540.3 363.3 540.7 379 538.7C394.7 536.7 410.3 532.3 426.2 533.7C442 535 458 542 473.8 545.5C489.7 549 505.3 549 521 548C536.7 547 552.3 545 568.2 544.8C584 544.7 600 546.3 615.8 546.8C631.7 547.3 647.3 546.7 663.2 545.2C679 543.7 695 541.3 710.8 541.7C726.7 542 742.3 545 758 546C773.7 547 789.3 546 805.2 544.5C821 543 837 541 852.8 539.5C868.7 538 884.3 537 892.2 536.5L900 536L900 601L892.2 601C884.3 601 868.7 601 852.8 601C837 601 821 601 805.2 601C789.3 601 773.7 601 758 601C742.3 601 726.7 601 710.8 601C695 601 679 601 663.2 601C647.3 601 631.7 601 615.8 601C600 601 584 601 568.2 601C552.3 601 536.7 601 521 601C505.3 601 489.7 601 473.8 601C458 601 442 601 426.2 601C410.3 601 394.7 601 379 601C363.3 601 347.7 601 331.8 601C316 601 300 601 284.2 601C268.3 601 252.7 601 236.8 601C221 601 205 601 189.2 601C173.3 601 157.7 601 142 601C126.3 601 110.7 601 94.8 601C79 601 63 601 47.2 601C31.3 601 15.7 601 7.8 601L0 601Z" fill="#f46767"></path><path d="M0 571L7.8 570.7C15.7 570.3 31.3 569.7 47.2 568.5C63 567.3 79 565.7 94.8 566.3C110.7 567 126.3 570 142 570.7C157.7 571.3 173.3 569.7 189.2 568.8C205 568 221 568 236.8 566.5C252.7 565 268.3 562 284.2 563.2C300 564.3 316 569.7 331.8 569.5C347.7 569.3 363.3 563.7 379 562C394.7 560.3 410.3 562.7 426.2 565.2C442 567.7 458 570.3 473.8 571.8C489.7 573.3 505.3 573.7 521 573.5C536.7 573.3 552.3 572.7 568.2 571.2C584 569.7 600 567.3 615.8 565.2C631.7 563 647.3 561 663.2 561C679 561 695 563 710.8 563C726.7 563 742.3 561 758 561.7C773.7 562.3 789.3 565.7 805.2 566.5C821 567.3 837 565.7 852.8 563.8C868.7 562 884.3 560 892.2 559L900 558L900 601L892.2 601C884.3 601 868.7 601 852.8 601C837 601 821 601 805.2 601C789.3 601 773.7 601 758 601C742.3 601 726.7 601 710.8 601C695 601 679 601 663.2 601C647.3 601 631.7 601 615.8 601C600 601 584 601 568.2 601C552.3 601 536.7 601 521 601C505.3 601 489.7 601 473.8 601C458 601 442 601 426.2 601C410.3 601 394.7 601 379 601C363.3 601 347.7 601 331.8 601C316 601 300 601 284.2 601C268.3 601 252.7 601 236.8 601C221 601 205 601 189.2 601C173.3 601 157.7 601 142 601C126.3 601 110.7 601 94.8 601C79 601 63 601 47.2 601C31.3 601 15.7 601 7.8 601L0 601Z" fill="#fa7268"></path></svg>