<svg id="visual" viewBox="0 0 900 600" width="900" height="600" xmlns="http://www.w3.org/2000/svg" xmlns:xlink="http://www.w3.org/1999/xlink" version="1.1"><path d="M0 277L13.7 253C27.3 229 54.7 181 82 154C109.3 127 136.7 121 163.8 121C191 121 218 127 245.2 148C272.3 169 299.7 205 327 213C354.3 221 381.7 201 409 193C436.3 185 463.7 189 491 184C518.3 179 545.7 165 573 158C600.3 151 627.7 151 654.8 159C682 167 709 183 736.2 193C763.3 203 790.7 207 818 190C845.3 173 872.7 135 886.3 116L900 97L900 0L886.3 0C872.7 0 845.3 0 818 0C790.7 0 763.3 0 736.2 0C709 0 682 0 654.8 0C627.7 0 600.3 0 573 0C545.7 0 518.3 0 491 0C463.7 0 436.3 0 409 0C381.7 0 354.3 0 327 0C299.7 0 272.3 0 245.2 0C218 0 191 0 163.8 0C136.7 0 109.3 0 82 0C54.7 0 27.3 0 13.7 0L0 0Z" fill="#6198ff"></path><path d="M0 361L13.7 343C27.3 325 54.7 289 82 267C109.3 245 136.7 237 163.8 225C191 213 218 197 245.2 216C272.3 235 299.7 289 327 306C354.3 323 381.7 303 409 287C436.3 271 463.7 259 491 252C518.3 245 545.7 243 573 236C600.3 229 627.7 217 654.8 227C682 237 709 269 736.2 287C763.3 305 790.7 309 818 296C845.3 283 872.7 253 886.3 238L900 223L900 95L886.3 114C872.7 133 845.3 171 818 188C790.7 205 763.3 201 736.2 191C709 181 682 165 654.8 157C627.7 149 600.3 149 573 156C545.7 163 518.3 177 491 182C463.7 187 436.3 183 409 191C381.7 199 354.3 219 327 211C299.7 203 272.3 167 245.2 146C218 125 191 119 163.8 119C136.7 119 109.3 125 82 152C54.7 179 27.3 227 13.7 251L0 275Z" fill="#3c80ff"></path><path d="M0 475L13.7 473C27.3 471 54.7 467 82 464C109.3 461 136.7 459 163.8 456C191 453 218 449 245.2 451C272.3 453 299.7 461 327 455C354.3 449 381.7 429 409 412C436.3 395 463.7 381 491 383C518.3 385 545.7 403 573 400C600.3 397 627.7 373 654.8 372C682 371 709 393 736.2 412C763.3 431 790.7 447 818 457C845.3 467 872.7 471 886.3 473L900 475L900 221L886.3 236C872.7 251 845.3 281 818 294C790.7 307 763.3 303 736.2 285C709 267 682 235 654.8 225C627.7 215 600.3 227 573 234C545.7 241 518.3 243 491 250C463.7 257 436.3 269 409 285C381.7 301 354.3 321 327 304C299.7 287 272.3 233 245.2 214C218 195 191 211 163.8 223C136.7 235 109.3 243 82 265C54.7 287 27.3 323 13.7 341L0 359Z" fill="#0066ff"></path><path d="M0 529L13.7 528C27.3 527 54.7 525 82 523C109.3 521 136.7 519 163.8 521C191 523 218 529 245.2 534C272.3 539 299.7 543 327 545C354.3 547 381.7 547 409 541C436.3 535 463.7 523 491 522C518.3 521 545.7 531 573 530C600.3 529 627.7 517 654.8 521C682 525 709 545 736.2 548C763.3 551 790.7 537 818 533C845.3 529 872.7 535 886.3 538L900 541L900 473L886.3 471C872.7 469 845.3 465 818 455C790.7 445 763.3 429 736.2 410C709 391 682 369 654.8 370C627.7 371 600.3 395 573 398C545.7 401 518.3 383 491 381C463.7 379 436.3 393 409 410C381.7 427 354.3 447 327 453C299.7 459 272.3 451 245.2 449C218 447 191 451 163.8 454C136.7 457 109.3 459 82 462C54.7 465 27.3 469 13.7 471L0 473Z" fill="#0059dd"></path><path d="M0 601L13.7 601C27.3 601 54.7 601 82 601C109.3 601 136.7 601 163.8 601C191 601 218 601 245.2 601C272.3 601 299.7 601 327 601C354.3 601 381.7 601 409 601C436.3 601 463.7 601 491 601C518.3 601 545.7 601 573 601C600.3 601 627.7 601 654.8 601C682 601 709 601 736.2 601C763.3 601 790.7 601 818 601C845.3 601 872.7 601 886.3 601L900 601L900 539L886.3 536C872.7 533 845.3 527 818 531C790.7 535 763.3 549 736.2 546C709 543 682 523 654.8 519C627.7 515 600.3 527 573 528C545.7 529 518.3 519 491 520C463.7 521 436.3 533 409 539C381.7 545 354.3 545 327 543C299.7 541 272.3 537 245.2 532C218 527 191 521 163.8 519C136.7 517 109.3 519 82 521C54.7 523 27.3 525 13.7 526L0 527Z" fill="#004cbb"></path></svg>